<?xml version="1.0" encoding="utf-8"?>
<!-- Generator: Adobe Illustrator 18.1.0, SVG Export Plug-In . SVG Version: 6.00 Build 0)  -->
<!DOCTYPE svg PUBLIC "-//W3C//DTD SVG 1.1//EN" "http://www.w3.org/Graphics/SVG/1.1/DTD/svg11.dtd">
<svg version="1.1" id="Layer_1" xmlns="http://www.w3.org/2000/svg" xmlns:xlink="http://www.w3.org/1999/xlink" x="0px" y="0px"
	 viewBox="0 0 1346.6 387.8" enable-background="new 0 0 1346.6 387.8" xml:space="preserve">
<path opacity="0.5" fill="#FEFBEB" d="M1210.9,323.3c-6-0.3-12-1.1-18-0.8c-16,0.9-27,10.7-33.3,24.4c-11.8,0.8-22.1,1.5-32.5,2.2
	c-2.1,3.5-4.7,6.8-6.1,10.5c-4.4,11.8-0.9,19.7,10.2,23c5.3,1.6,10.8,2.4,16.3,3.6c14.3,0.1,28.6,0.2,42.9,0.2
	c4.4,0,8.9,0.1,13.3,0.1c5.6-0.4,11.2-1.4,16.7-1.2c19.1,0.7,38.1,2.8,57.2,2.4c23.6-0.5,47.9,1.2,69.1-16.6c-0.1-1-0.3-2.1-0.4-3.1
	c-7.3-9.6-14.6-19.3-21.9-28.9l0.3-0.6c-5.5-0.3-11-0.7-17.7-1.1c-5.7-21.3-16.8-35-39-36.7c-20.6-1.6-37,3.4-47.7,25.8
	C1216.6,325.2,1213.7,324.3,1210.9,323.3z"/>
<path opacity="0.9" fill="#FEFBEB" d="M1187.6,40.2c-2.2,1-4.4,2.6-6.7,3.1c-13.8,2.9-23.8,10.2-28.3,24c-0.3,0.6-0.7,1.1-1,1.7
	c-0.9,2.3-1.8,4.5-2.9,7.1c-8.8-3.6-16-1.3-21.5,6.1c-5.1-4-10.3-7.9-15.4-11.9c0.7-0.1,1.4-0.2,2.1-0.3c10.4,1.9,20.3,1.3,29.6-4.4
	c22-13.6,24.3-43.7,4.7-60.7c-1.7-1.4-3.3-2.8-5.2-4.4C1164-3.9,1185.4,15.4,1187.6,40.2z"/>
<g opacity="0.5">
	<path fill="#FEFBEB" d="M1294.3,74.3c-5-3-11.2-4.6-17-5.6c-5.1-0.9-10.4-0.2-16.2-0.2c-6.3-15.7-19.1-14-32-11.5
		c-8.8-9-19.3-13-31.5-13.2c-1.8,0-3.5-1.8-5.3-2.8c-2.3,1.1-4.6,2.8-7.1,3.3c-14.6,3.1-25.1,11-29.8,25.8c2.7,2.7,5.4,5.3,8.2,8
		c3.1-2.1,6.3-4.3,9.4-6.4c3.2-3.2,6.3-6.5,9.5-9.7c0.8-1.3,1.7-2.5,2.5-3.8c0.4,0.3,0.7,0.7,1.1,1c-1.2,1-2.3,2-3.5,3
		c-3.2,3.2-6.3,6.5-9.5,9.7c-2.1,3.2-4.2,6.4-6.2,9.5c6.3,6.5,12.5,13,18.8,19.4c0,0,0,0,0,0c0,0,0,0,0,0l0,0c0.5,0.5,1,1,1.5,1.5
		c36.8-1.6,73.6-3.1,109.4-4.6C1303.3,88.3,1302.5,79.2,1294.3,74.3z"/>
	<path fill="#FEFBEB" d="M1163.6,81.5c-1,1.1-2.1,2.2-3.1,3.2c-0.8,1.3-1.6,2.5-2.4,3.8c-0.4-0.4-0.8-0.7-1.2-1.1
		c1.1-1,2.3-1.9,3.4-2.9c1.1-1.1,2.1-2.1,3.2-3.2c0-0.5,0-0.9,0-1.4c-3-2.7-6.1-5.4-9.1-8.1c-1,2.4-1.9,4.8-3,7.6
		c-9.3-3.9-16.8-1.4-22.6,6.6c-2.1,8-1.9,8.6,6.3,13.1c0.5,0,1,0,1.6,0c2.7-1.8,5-2.4,6.3,1.6l0.6,0.3c14.1,0.4,28.2,0.9,42.3,1.3
		c0-0.5-0.1-1-0.1-1.5c-6.9-6.4-13.8-12.8-20.8-19.2C1164.5,81.5,1164.1,81.5,1163.6,81.5z"/>
</g>
<path opacity="0.5" fill="#FEFBEB" d="M202.3,253.9c3.1,0,6.2-0.2,9.2,0.2c8.1,1.2,13.2,7.9,15.6,16.8c5.9,1,11.2,1.8,16.4,2.6
	c0.9,2.3,2,4.5,2.6,6.9c1.6,7.7-0.6,12.5-6.4,14.2c-2.8,0.8-5.6,1.1-8.5,1.6c-7.3-0.5-14.6-1-21.8-1.5c-2.3-0.2-4.5-0.3-6.8-0.5
	c-2.8-0.5-5.6-1.3-8.4-1.4c-9.7-0.3-19.5,0.3-29.2-0.7c-12-1.3-24.4-1.1-34.3-13.2c0.1-0.7,0.2-1.3,0.4-2
	c4.2-5.8,8.5-11.7,12.7-17.5l-0.1-0.4c2.8,0,5.6,0,9,0c4-13.3,10.4-21.6,21.8-21.9c10.5-0.2,18.6,3.6,22.9,18.2
	C199.3,254.9,200.8,254.4,202.3,253.9z"/>
<path opacity="0.5" fill="#FEFBEB" d="M135.7,254.3c6-0.3,12-1.1,18-0.8c16,0.9,27,10.7,33.3,24.4c11.8,0.8,22.1,1.5,32.5,2.2
	c2.1,3.5,4.7,6.8,6.1,10.5c4.4,11.8,0.9,19.7-10.2,23c-5.3,1.6-10.8,2.4-16.3,3.6c-14.3,0.1-28.6,0.2-42.9,0.2
	c-4.4,0-8.9,0.1-13.3,0.1c-5.6-0.4-11.2-1.4-16.7-1.2c-19.1,0.7-38.1,2.8-57.2,2.4c-23.6-0.5-47.9,1.2-69.1-16.6
	c0.1-1,0.3-2.1,0.4-3.1c7.3-9.6,14.6-19.3,21.9-28.9l-0.3-0.6c5.5-0.3,11-0.7,17.7-1.1c5.7-21.3,16.8-35,39-36.7
	c20.6-1.6,37,3.4,47.7,25.8C130.1,256.2,132.9,255.3,135.7,254.3z"/>
</svg>
