<?xml version="1.0" encoding="utf-8"?>
<!-- Generator: Adobe Illustrator 18.1.0, SVG Export Plug-In . SVG Version: 6.00 Build 0)  -->
<!DOCTYPE svg PUBLIC "-//W3C//DTD SVG 1.1//EN" "http://www.w3.org/Graphics/SVG/1.1/DTD/svg11.dtd">
<svg version="1.1" id="Layer_1" xmlns="http://www.w3.org/2000/svg" xmlns:xlink="http://www.w3.org/1999/xlink" x="0px" y="0px"
	 viewBox="0 0 721.8 262.1" enable-background="new 0 0 721.8 262.1" xml:space="preserve">
<g>
	<path fill="#FEFBEB" d="M266.4,3.2l7.5,46.5l-35.3,1.1l3,64.6h-35.3l8.6-64.6l-33.2-1.1L177,3.2H266.4z"/>
	<path fill="#FEFBEB" d="M349.2,2.6l0.9,28.7L321.5,35l-1.1,6.8l14.4-1.1l1.8,28.7l-23.9,2v7.5l34.4-1.8l2.9,38.1h-71.5l1.8-112.6
		H349.2z"/>
	<path fill="#FEFBEB" d="M451.7,68.9c-4.5,25.4-26.1,47.1-48,48.9c-27.2,0.9-48-24.5-49.8-57.2C351.1,28.1,371.1,1.8,398.3,0
		c21.8-0.9,47.1,17.3,52.6,47.1L420,60.7L451.7,68.9z"/>
	<path fill="#FEFBEB" d="M485.5,2.9l1.1,18.9l21.8-2.7V2.9h27.6L547.4,115h-35.3l2-44.6l-22.8-3l2.9,47.6h-36.2L457,2.9H485.5z"/>
	<path fill="#FEFBEB" d="M98.1,213.1c-4.5,25.4-26.1,47.1-48,48.9C22.9,263,2,237.6,0.2,204.9c-2.7-32.6,17.3-58.9,44.4-60.7
		c21.8-0.9,47.1,17.3,52.6,47.1l-30.8,13.5L98.1,213.1z"/>
	<path fill="#FEFBEB" d="M172.6,146.8l0.9,28.7l-28.5,3.8l-1.1,6.8l14.4-1.1l1.8,28.7l-23.9,2v7.5l34.4-1.8l2.9,38.1H102l1.8-112.6
		H172.6z"/>
	<path fill="#FEFBEB" d="M177,143.9l55.4,44.3l45.3-37.8l-3.8,109h-96.1L177,143.9z"/>
	<path fill="#FEFBEB" d="M350.5,146.8l0.9,28.7l-28.5,3.8l-1.1,6.8l14.4-1.1l1.8,28.7l-23.9,2v7.5l34.4-1.8l2.9,38.1H280l1.8-112.6
		H350.5z"/>
	<path fill="#FEFBEB" d="M447.2,147.4l7.5,46.5l-35.3,1.1l3,64.6h-35.3l8.6-64.6l-33.2-1.1l-4.8-46.5H447.2z"/>
	<path fill="#FEFBEB" d="M529.9,146.8l0.9,28.7l-28.5,3.8l-1.1,6.8l14.4-1.1l1.8,28.7l-23.9,2v7.5l34.4-1.8l2.9,38.1h-71.5
		l1.8-112.6H529.9z"/>
	<path fill="#FEFBEB" d="M582.8,210.3l39.9,49.2h-86.3V147.7C630.2,137.3,619.7,199,582.8,210.3z"/>
	<path fill="#FEFBEB" d="M624.7,148.1l97.1-1.8l-31.5,58.1l0.9,56.3l-36.9-2.7l2-55.4L624.7,148.1z"/>
</g>
</svg>
