<?xml version="1.0" encoding="utf-8"?>
<!-- Generator: Adobe Illustrator 18.0.0, SVG Export Plug-In . SVG Version: 6.00 Build 0)  -->
<!DOCTYPE svg PUBLIC "-//W3C//DTD SVG 1.1//EN" "http://www.w3.org/Graphics/SVG/1.1/DTD/svg11.dtd">
<svg version="1.1" id="Layer_1" xmlns="http://www.w3.org/2000/svg" xmlns:xlink="http://www.w3.org/1999/xlink" x="0px" y="0px"
	 viewBox="-120.5 328 852.6 131.2" enable-background="new -120.5 328 852.6 131.2" xml:space="preserve">
<path fill="#FAB815" d="M194.9,395.6c2.5-2.6,3.3-11.2,3.3-11.2l-19.7,1.1l0.2,15.4l17.2,10.9l25-56.7l21.5,6.6l-1.1,51.3l-29.1-4.8
	l10.8-26.6l-2.3,19.7l12.8-0.1L234,367l-10.3-5.9l-24.2,58.4l-27.5-9.1l2.2-33.4l25.7,3.1l0.1,12.8L194.9,395.6z"/>
<polygon fill="#FAB815" points="343.8,375.3 335.8,398.9 306.8,413.1 280.7,402.9 269,376.1 279.2,346.8 299.1,336.1 337.4,349.9 
	"/>
<g>
	<polygon fill="#5B4B43" points="296.4,343.1 292,378.8 305.4,375.2 300.6,393.5 309.3,391.4 326,361.2 311.9,365.3 318.7,337.1 	
		"/>
	<path fill="#5B4B43" d="M311.9,407c0,4.9-4,9-8.9,9s-9-4-9-8.9s4-9,8.9-9C307.9,398,311.9,402,311.9,407z"/>
</g>
<path fill="#FAB815" d="M306.5,328l-35.9,4.7l-16.2,42.5l13.7,38.3l40.3,8.5l28.1-9.3l17.1-37.8l-4.6-32L306.5,328z M335.6,406
	l-23,11.4l-34.7-9l-18.3-30.2l13.7-40.8l29.4-6.3l35.2,11.2l12.8,32.8L335.6,406z"/>
<polygon fill="#FAB815" points="155.8,462.6 166.8,461.7 162.1,374.8 169.6,368.6 163.4,365.9 168.1,360.4 157.7,348.1 151.7,360.5 
	156.5,364.6 150.4,370.1 155.3,373.5 "/>
<polygon fill="#FAB815" points="308.7,462 313.7,419.4 299.3,419.4 "/>
<polygon fill="#FAB815" points="143.6,378.4 149.4,411.9 122.8,421.8 103.4,402.9 94.6,412.5 100.9,418.6 110.4,417.2 100.3,425.5 
	87.8,414 103.3,391.9 122.8,415.7 140.4,401.1 135.4,384.7 125.1,381.4 130.1,394.3 113.5,380.8 "/>
<polygon fill="#FAB815" points="83.6,459.2 78.7,414.8 82,410.6 79.3,407.2 83.3,403.8 72.9,389.5 68.3,405.3 71,406.6 71.1,411.4 
	73.9,414.1 73.3,460 "/>
<polygon fill="#FAB815" points="732.1,459.2 727.2,414.8 730.6,410.6 727.8,407.2 731.9,403.8 721.4,389.5 716.8,405.3 719.6,406.6 
	719.6,411.4 722.4,414.1 721.8,460 "/>
<polygon fill="#FAB815" points="87.1,432.2 147.7,433.6 146.5,422.6 "/>
<polygon fill="#FAB815" points="100.7,457.7 88.2,440.4 119,439 128.4,450.2 136.5,439.9 142.7,439.8 138.7,456.3 121.3,457.5 
	116,443.2 "/>
<path fill="#FAB815" d="M413.8,395.6c-2.5-2.6-3.3-11.2-3.3-11.2l19.7,1.1l-0.2,15.4l-17.2,10.9l-25-56.7l-21.5,6.6l1.1,51.3
	l29.1-4.8l-10.8-26.6l2.3,19.7l-12.8-0.1l-0.5-34.2l10.3-5.9l24.2,58.4l27.5-9.1l-2.2-33.4l-25.7,3.1l-0.1,12.8L413.8,395.6z"/>
<polygon fill="#FAB815" points="452.8,462.6 441.9,461.7 446.5,374.8 439.1,368.6 445.3,365.9 440.5,360.4 450.9,348.1 457,360.5 
	452.1,364.6 458.2,370.1 453.4,373.5 "/>
<polygon fill="#FAB815" points="465.1,378.4 459.2,411.9 485.8,421.8 505.2,402.9 514,412.5 507.8,418.6 498.2,417.2 508.4,425.5 
	520.8,414 505.3,391.9 485.9,415.7 468.3,401.1 473.2,384.7 483.5,381.4 478.6,394.3 495.2,380.8 "/>
<polygon fill="#FAB815" points="606.7,459.2 611.6,414.8 608.2,410.6 611,407.2 606.9,403.8 617.3,389.5 622,405.3 619.2,406.6 
	619.1,411.4 616.4,414.1 616.9,460 "/>
<polygon fill="#FAB815" points="652.5,426.2 633.5,408.9 619.7,427.3 629.8,441.1 640.1,433.6 631.9,433.6 627.9,427.3 636.8,420.6 
	655.1,439.3 673.8,421 663.3,418.3 654,416 665.6,423 "/>
<polygon fill="#FAB815" points="521.6,432.2 460.9,433.6 462.1,422.6 "/>
<polygon fill="#FAB815" points="507.9,457.7 520.4,440.4 489.6,439 480.3,450.2 472.2,439.9 466,439.8 469.9,456.3 487.4,457.5 
	492.7,443.2 "/>
<polygon fill="#FAB815" points="536.6,462.6 525.6,461.7 530.3,374.8 522.8,368.6 529,365.9 524.3,360.4 534.7,348.1 540.7,360.5 
	535.9,364.6 542,370.1 537.2,373.5 "/>
<polygon fill="#FAB815" points="599.5,410.7 605.3,444.2 578.7,454.1 559.3,435.1 550.5,444.8 556.8,450.9 566.3,449.4 556.2,457.7 
	543.7,446.2 559.2,424.1 578.6,447.9 596.3,433.3 591.3,416.9 581,413.6 585.9,426.6 569.4,413.1 "/>
<polygon fill="#FAB815" points="554.2,393.6 545.9,413.4 576.2,407.7 582.8,394.7 593,403 599,401.7 591.5,386.5 574.2,389.2 
	572.3,404.4 "/>
<polygon fill="#FAB815" points="625.1,451 645.8,441 658,451.4 672.6,431.3 720.6,459.2 681.6,456.8 681.7,444.4 657.9,459.6 "/>
<polyline fill="#FAB815" points="242.4,361.7 264.3,354.7 269.3,342.4 220.9,355.1 "/>
<path fill="#FAB815" d="M347.4,344.6l35.2,13.2l-14.6,5c0,0-20.5-4.6-20.1-7.3C348.3,352.9,347.4,344.6,347.4,344.6z"/>
<polygon fill="#FAB815" points="-120.5,459.2 -115.6,414.8 -119,410.6 -116.2,407.2 -120.3,403.8 -109.8,389.5 -105.2,405.3 
	-108,406.6 -108,411.4 -110.8,414.1 -110.2,460 "/>
<polygon fill="#FAB815" points="4.9,459.2 0,414.8 3.4,410.6 0.6,407.2 4.7,403.8 -5.7,389.5 -10.4,405.3 -7.6,406.6 -7.6,411.4 
	-4.8,414.1 -5.4,460 "/>
<polygon fill="#FAB815" points="-40.9,426.2 -22,408.9 -8.1,427.3 -18.2,441.1 -28.5,433.6 -20.3,433.6 -16.3,427.3 -25.3,420.6 
	-43.5,439.3 -62.2,421 -51.8,418.3 -42.4,416 -54,423 "/>
<polygon fill="#FAB815" points="12.1,410.7 6.3,444.2 32.9,454.1 52.3,435.1 61.1,444.8 54.8,450.9 45.3,449.4 55.4,457.7 
	67.9,446.2 52.4,424.1 32.9,447.9 15.3,433.3 20.3,416.9 30.6,413.6 25.6,426.6 42.2,413.1 "/>
<polygon fill="#FAB815" points="57.4,393.6 65.7,413.4 35.4,407.7 28.8,394.7 18.6,403 12.5,401.7 20.1,386.5 37.4,389.2 
	39.3,404.4 "/>
<polygon fill="#FAB815" points="-13.5,451 -34.2,441 -46.4,451.4 -61,431.3 -109,459.2 -70,456.8 -70.1,444.4 -46.3,459.6 "/>
</svg>
